<svg version="1.1" id="Layer_1" xmlns="http://www.w3.org/2000/svg" xmlns:xlink="http://www.w3.org/1999/xlink" x="0px" y="0px"
	 width="100%" viewBox="0 0 496 496" enable-background="new 0 0 496 496" xml:space="preserve">
<path fill="#000000" opacity="1.000000" stroke="none" 
	d="
M245.930023,190.429184 
	C245.943466,202.704208 246.051025,214.529343 245.940781,226.352448 
	C245.876785,233.218521 245.187119,233.770813 238.287292,233.010971 
	C226.522156,231.715347 214.846909,229.721222 203.611542,225.987671 
	C189.559784,221.318237 179.956085,213.340073 180.496765,196.462997 
	C180.835144,185.900024 178.981949,175.250763 177.890472,164.663071 
	C177.006927,156.092407 180.511627,149.435104 186.431198,143.766403 
	C194.181732,136.344315 203.636337,131.238083 212.273163,125.019173 
	C221.742844,118.200554 231.195068,111.367973 238.502731,102.089409 
	C241.091888,98.801956 243.057373,100.096588 244.431046,103.012932 
	C245.101822,104.437012 245.138763,106.245033 245.148972,107.881226 
	C245.223785,119.872169 245.124649,131.864975 245.297501,143.854065 
	C245.348816,147.413132 244.185104,149.613007 241.050980,151.508850 
	C229.945145,158.226746 218.846008,164.984299 208.607407,173.021118 
	C207.350632,174.007629 205.592896,174.601562 205.622528,176.937302 
	C208.173660,178.635315 211.221741,178.500427 214.127106,178.580750 
	C221.950851,178.797058 229.779816,178.835266 237.607025,178.912415 
	C244.930359,178.984589 244.931534,178.966583 245.582489,186.001617 
	C245.705093,187.326691 245.816284,188.652802 245.930023,190.429184 
z"/>
<path fill="#000000" opacity="1.000000" stroke="none" 
	d="
M250.947479,199.012970 
	C251.029099,184.195618 251.025314,184.189285 263.740601,176.587402 
	C271.895660,171.711914 279.671295,166.276703 287.312317,160.643478 
	C288.754059,159.580582 290.448364,158.693939 290.908386,156.018051 
	C285.945435,154.767822 280.853699,154.635162 275.836304,154.416824 
	C269.350220,154.134583 262.842957,154.201202 256.348114,154.312256 
	C252.923416,154.370804 251.638885,153.009720 251.663879,149.574661 
	C251.772964,134.581696 251.705933,119.587471 251.711914,104.593697 
	C251.712814,102.351715 251.658463,99.912224 254.985916,100.346611 
	C270.323090,102.348724 285.760162,103.925423 299.984222,110.770065 
	C309.565826,115.380737 315.397125,121.958260 315.355499,133.565796 
	C315.317505,144.168381 316.676941,154.829620 318.119293,165.369400 
	C319.687988,176.832321 315.587891,185.480286 306.859253,192.495621 
	C296.205536,201.058212 284.118835,207.626419 273.671387,216.470154 
	C268.466614,220.875992 262.992371,224.974411 258.907104,230.578903 
	C257.811310,232.082199 256.615814,234.344376 254.171387,233.340073 
	C251.961014,232.431900 251.271576,230.292465 251.248383,227.969208 
	C251.153641,218.482697 251.047729,208.996307 250.947479,199.012970 
z"/>
<path fill="#000000" opacity="1.000000" stroke="none" 
	d="
M443.329071,287.000061 
	C443.329712,293.999298 443.308044,300.498596 443.337830,306.997681 
	C443.362030,312.272247 442.162354,318.034912 448.933838,320.277802 
	C447.710114,322.983582 445.823090,322.165009 444.302094,322.288422 
	C440.987610,322.557373 437.644135,322.555847 434.350311,322.967346 
	C431.338928,323.343567 428.939911,323.119293 428.675110,319.239990 
	C418.400116,327.462860 405.190643,323.914612 400.858734,311.937683 
	C398.076477,304.245361 397.731415,296.262970 399.884735,288.336426 
	C403.083557,276.561035 412.875671,270.806732 424.804474,273.463623 
	C425.914703,273.710938 426.994751,274.350983 428.997955,273.473450 
	C427.539368,266.507355 432.915710,257.982483 423.828003,252.461853 
	C424.341400,250.570038 425.843109,250.866760 427.106689,250.829514 
	C429.770844,250.750992 432.440002,250.826599 435.102997,250.727737 
	C443.332855,250.422150 443.334503,250.401886 443.334961,258.503479 
	C443.335510,267.835663 443.331207,277.167877 443.329071,287.000061 
M414.185486,289.691162 
	C412.737122,296.811279 413.401245,303.901245 414.766327,310.919983 
	C415.562073,315.011414 417.273376,318.742096 422.373871,318.584259 
	C426.355621,318.460968 428.911804,314.926147 428.971497,309.534637 
	C429.068848,300.745300 428.973602,291.954010 429.009033,283.163727 
	C429.020355,280.358582 428.760895,277.827606 425.501984,276.832703 
	C422.384918,275.881073 419.911682,277.061127 417.909058,279.240570 
	C415.455383,281.910858 414.703003,285.345154 414.185486,289.691162 
z"/>
<path fill="#000000" opacity="1.000000" stroke="none" 
	d="
M200.931305,256.651855 
	C206.272934,256.666443 211.057449,257.107910 215.608322,258.966156 
	C222.049484,261.596222 226.652267,265.849945 227.297180,273.149719 
	C228.020004,281.331299 224.906769,287.844299 217.828705,292.114563 
	C213.207870,294.902344 208.104523,296.248016 202.618423,296.257874 
	C195.275162,296.271057 195.274612,296.381073 195.252731,303.877258 
	C195.248856,305.208130 195.255722,306.539032 195.254807,307.869904 
	C195.248734,316.801971 195.249649,316.798828 203.670074,319.897339 
	C204.119125,320.062561 204.521683,320.354156 204.987228,320.609619 
	C202.397919,322.808380 176.473053,323.123108 172.235153,320.759491 
	C181.630096,318.860077 179.610855,311.996216 179.648788,306.088470 
	C179.724640,294.277374 179.660919,282.465393 179.679947,270.653839 
	C179.688339,265.449097 180.506866,259.866638 172.478394,258.733826 
	C172.769165,258.146881 173.059921,257.559937 173.350693,256.972961 
	C182.381287,256.866333 191.411880,256.759705 200.931305,256.651855 
M210.793350,280.115601 
	C210.825424,278.127960 210.872116,276.140411 210.886353,274.152649 
	C210.911514,270.638824 210.590698,267.180450 208.779465,264.061890 
	C206.608566,260.324097 203.187119,258.837585 199.088745,259.583618 
	C194.832794,260.358276 195.291656,264.015472 195.269150,267.129395 
	C195.216461,274.419678 195.436188,281.716675 195.192307,288.999084 
	C195.046616,293.349548 197.110855,294.073914 200.710068,293.454132 
	C206.561005,292.446716 209.437759,288.927368 210.793350,280.115601 
z"/>
<path fill="#000000" opacity="1.000000" stroke="none" 
	d="
M298.150055,315.146362 
	C298.154999,319.339111 301.749542,317.375610 303.412201,318.460327 
	C299.803345,324.863403 290.145477,324.884491 283.810272,318.704742 
	C281.507874,318.751495 280.199463,320.825073 278.247803,321.656464 
	C273.232269,323.793121 268.178131,324.305237 263.403534,321.331055 
	C259.250610,318.744080 258.356445,314.494812 258.815369,309.928558 
	C259.344940,304.658997 262.830017,301.696716 267.316986,299.729370 
	C271.278259,297.992584 275.279633,296.320923 279.352905,294.872406 
	C284.416290,293.071808 284.649200,287.047211 282.967529,280.337799 
	C281.630981,275.005219 277.250641,275.856750 273.229889,276.583008 
	C272.571320,278.590881 274.200226,279.447998 274.914307,280.632080 
	C277.118805,284.287628 276.288025,287.524445 273.253998,289.966248 
	C270.447510,292.224945 266.852356,292.521332 263.965179,290.302338 
	C260.751099,287.832092 259.822845,284.211548 261.926361,280.478943 
	C264.631256,275.679169 269.522125,274.264526 274.443359,273.145508 
	C276.044678,272.781372 277.756805,272.866272 279.420319,272.819916 
	C292.879974,272.444977 297.677063,276.829315 298.052124,290.260529 
	C298.279877,298.416443 298.114624,306.583344 298.150055,315.146362 
M273.057556,310.316467 
	C273.130859,313.617065 274.484009,315.796722 278.089050,315.801239 
	C280.934723,315.804810 283.219757,314.410034 283.450378,311.595459 
	C283.822205,307.057800 284.246338,302.424042 282.942078,297.439362 
	C277.361115,300.033661 272.804932,302.760071 273.057556,310.316467 
z"/>
<path fill="#000000" opacity="1.000000" stroke="none" 
	d="
M84.509888,317.189392 
	C81.719521,308.334137 84.527603,302.643646 93.170998,299.101837 
	C96.861435,297.589600 100.689247,296.390259 104.304581,294.723297 
	C107.980721,293.028259 109.499977,285.301819 107.470413,279.941711 
	C106.039993,276.163971 103.117424,275.309906 97.453018,277.029419 
	C97.213829,278.427002 98.527412,278.967834 99.089218,279.914154 
	C101.449089,283.889313 101.030365,287.891602 97.590942,290.064941 
	C94.417274,292.070343 90.918068,292.351959 87.910202,289.696045 
	C84.974388,287.103790 84.965340,281.961670 87.599686,278.788727 
	C93.483864,271.701508 111.947342,270.462646 118.537544,276.741089 
	C121.378975,279.448151 122.277870,282.945404 122.297318,286.724426 
	C122.339279,294.876404 122.458199,303.030640 122.311913,311.179779 
	C122.238510,315.268707 122.211792,318.950256 128.055771,318.389648 
	C123.751175,325.187653 114.465714,324.944702 108.131882,318.288757 
	C97.633003,325.435944 90.205704,325.195953 84.509888,317.189392 
M97.547005,311.735138 
	C98.540726,314.562347 100.387177,316.176208 103.528282,315.798035 
	C105.692711,315.537476 107.495476,314.442719 107.707512,312.209961 
	C108.153877,307.509766 108.400261,302.770660 107.462349,298.005493 
	C99.977684,300.343475 97.347466,303.834930 97.547005,311.735138 
z"/>
<path fill="#000000" opacity="1.000000" stroke="none" 
	d="
M74.231873,268.232544 
	C74.202583,283.683990 74.307838,298.666931 74.092468,313.645294 
	C73.966644,322.396271 72.114441,330.538239 63.930176,335.735748 
	C59.870865,338.313690 55.447113,339.507538 50.736145,339.830994 
	C49.447769,339.919434 48.014233,340.005615 47.482395,338.319916 
	C47.610527,337.999390 47.666435,337.487701 47.859867,337.428955 
	C57.866905,334.390411 58.481781,326.048828 58.604202,317.779388 
	C58.828400,302.634918 58.717190,287.484619 58.647976,272.337189 
	C58.622234,266.703278 60.363506,260.175751 51.175571,258.493164 
	C51.569901,258.079163 51.964230,257.665192 52.358562,257.251190 
	C61.681580,257.251190 71.004593,257.251190 80.327614,257.251190 
	C76.555786,259.923401 72.962288,262.383209 74.231873,268.232544 
z"/>
<path fill="#000000" opacity="1.000000" stroke="none" 
	d="
M323.729980,274.012756 
	C325.426727,274.058228 326.906128,273.772522 327.373199,276.186005 
	C319.027527,278.172852 323.350922,282.893402 325.161835,287.279572 
	C327.612915,293.216187 329.681244,299.322083 333.395691,305.994965 
	C336.363953,298.075592 339.832794,291.510254 340.509766,283.979675 
	C340.919586,279.420441 336.531372,278.355927 333.545166,275.197144 
	C339.290558,272.846039 344.519196,274.433929 349.470001,274.111206 
	C349.781006,274.994446 350.076996,275.430450 349.969055,275.585938 
	C341.085541,288.378296 338.564331,303.762390 332.779633,317.813507 
	C330.821411,322.570129 329.387665,327.541321 327.470215,332.316498 
	C324.497101,339.720825 315.252380,342.546967 308.630005,338.057953 
	C305.650146,336.038055 303.928131,333.164307 305.640503,329.468384 
	C307.649872,325.131378 311.561401,324.983307 315.485260,325.738647 
	C318.906433,326.397156 320.484436,328.793274 320.196899,332.306335 
	C320.118835,333.259796 319.949310,334.205750 319.798279,335.329865 
	C324.101715,333.525482 327.162506,328.225891 325.627991,324.610016 
	C319.387512,309.905151 312.894867,295.307404 306.511841,280.662933 
	C305.559784,278.478638 302.760010,277.908264 301.723450,274.689880 
	C309.114807,274.189636 316.306580,275.392853 323.729980,274.012756 
z"/>
<path fill="#000000" opacity="1.000000" stroke="none" 
	d="
M249.795532,258.310547 
	C249.679260,275.179596 249.522354,291.652100 249.404129,308.124908 
	C249.344711,316.405884 249.376495,316.406097 255.513367,321.896179 
	C246.560959,321.896179 238.361267,321.896179 230.184784,321.896179 
	C229.618866,320.061249 231.040237,319.889618 231.986145,319.329376 
	C234.551544,317.809906 235.400574,315.496857 235.370636,312.590424 
	C235.224960,298.443054 235.133850,284.294922 235.082687,270.146851 
	C235.042603,259.062927 235.081070,259.062775 229.706223,251.690826 
	C233.561478,249.907120 237.568741,251.024216 241.401108,250.759094 
	C249.022049,250.231918 249.030289,250.351089 249.795532,258.310547 
z"/>
<path fill="#000000" opacity="1.000000" stroke="none" 
	d="
M166.147736,278.349670 
	C165.554504,282.395294 167.294373,286.342682 164.744690,289.808014 
	C162.001190,288.686707 162.325363,286.173981 161.546371,284.287628 
	C159.978745,280.491669 158.162735,276.903503 153.503723,276.308624 
	C151.007996,275.989960 148.295868,275.774811 146.859558,278.481873 
	C145.478653,281.084564 146.005661,283.707458 147.797043,285.965881 
	C150.426651,289.281158 154.262833,291.176483 157.408813,293.889984 
	C159.800522,295.952942 162.415665,297.831635 164.476028,300.190094 
	C170.737915,307.358063 169.074265,316.705475 160.727585,321.313690 
	C155.054367,324.445892 149.016876,324.964539 142.893967,322.586914 
	C139.730850,321.358612 136.627411,318.446198 133.334717,324.522400 
	C131.431763,316.629730 132.908875,310.654449 133.119980,304.096680 
	C136.296875,305.285553 135.877121,307.532715 136.465454,309.260315 
	C138.081451,314.005524 139.514786,318.945801 145.396378,320.245422 
	C148.020233,320.825195 150.422424,320.502625 152.167236,318.268738 
	C153.877472,316.079071 153.866791,313.665222 152.700775,311.206207 
	C151.138687,307.911926 148.144760,305.966156 145.563965,303.636810 
	C142.601730,300.963135 139.260864,298.624115 136.683289,295.625031 
	C128.991501,286.675385 132.807404,275.665222 144.348389,273.189667 
	C148.470535,272.305481 152.744293,272.284241 156.632843,274.058990 
	C159.589767,275.408569 162.172836,276.289398 164.404022,273.367584 
	C166.758240,274.487762 165.954727,276.361603 166.147736,278.349670 
z"/>
<path fill="#000000" opacity="1.000000" stroke="none" 
	d="
M392.693634,309.796234 
	C394.016388,316.409058 391.560669,321.491882 387.101410,325.357605 
	C378.008850,333.239899 367.010498,336.088867 355.188782,336.209534 
	C354.636688,336.215179 354.079620,335.730896 353.296814,335.369537 
	C354.314758,332.690094 356.619965,333.136566 358.365936,332.760956 
	C366.005554,331.117584 372.518250,327.859283 376.367981,320.637665 
	C378.786987,316.099823 379.164551,311.455536 376.828857,306.760773 
	C374.849792,302.782776 372.019775,300.421295 367.224548,301.817291 
	C365.644592,302.277283 363.478577,302.970795 362.970245,300.829926 
	C362.324982,298.112335 364.952667,298.353699 366.624908,298.018829 
	C372.973816,296.747528 377.114655,288.577515 374.286499,282.831787 
	C372.640381,279.487549 368.572723,278.638214 363.715759,279.959656 
	C360.243317,280.904419 358.494568,284.414642 354.721252,285.501068 
	C354.373383,281.419708 357.015625,279.373688 359.303741,277.521118 
	C366.132019,271.992645 373.976288,271.327209 381.936066,274.337677 
	C390.670441,277.641022 392.012695,287.384125 384.809784,293.433716 
	C382.950348,294.995453 380.857452,296.279266 378.220978,298.153351 
	C384.523010,300.676880 390.493469,302.749146 392.693634,309.796234 
z"/>
<path fill="#000000" opacity="1.000000" stroke="none" 
	d="
M74.576065,354.692200 
	C75.134743,355.580505 75.089226,356.608765 76.350014,356.735413 
	C78.015305,353.602234 74.459541,351.388214 74.673759,348.172180 
	C77.218826,348.221497 79.665077,349.611328 82.084930,347.711914 
	C82.478851,351.025940 78.659470,353.585724 81.675240,356.425537 
	C85.238113,354.843445 82.955132,349.026031 88.581833,347.520630 
	C86.224174,353.003052 84.316467,357.439209 82.538094,361.574585 
	C80.139076,361.943970 80.072388,360.013031 78.385612,359.013824 
	C77.859932,360.083374 77.277557,361.268280 76.318756,363.219055 
	C72.492470,358.188690 71.251770,353.401276 68.904716,349.130005 
	C72.030464,348.065369 72.030464,348.065369 74.576065,354.692200 
z"/>
<path fill="#000000" opacity="1.000000" stroke="none" 
	d="
M133.575058,354.796814 
	C133.678497,358.134186 136.651199,359.210480 138.050552,361.729095 
	C133.328049,363.645233 132.741180,358.227417 129.974792,357.201538 
	C128.168777,358.689697 129.972351,360.503662 129.184723,361.943115 
	C127.454048,361.979950 127.454048,361.979950 125.324905,348.562775 
	C132.245621,346.444641 134.920868,348.329437 133.575058,354.796814 
z"/>
<path fill="#000000" opacity="1.000000" stroke="none" 
	d="
M408.933411,347.712708 
	C414.366638,349.246948 416.847412,352.444397 416.123444,356.454651 
	C415.435852,360.263123 411.788513,363.275360 407.860809,362.892731 
	C403.789825,362.496063 401.113770,360.277771 400.652313,355.999512 
	C400.176453,351.587494 402.750153,348.922333 408.933411,347.712708 
M409.617340,350.258240 
	C406.360992,348.758820 405.027405,351.122620 404.047729,353.362091 
	C402.901489,355.982330 404.291809,358.228943 406.245148,359.874237 
	C407.783478,361.169952 409.769196,361.007599 411.210266,359.625549 
	C413.225433,357.692841 413.296967,355.227905 412.136932,352.808380 
	C411.732758,351.965332 410.858246,351.347809 409.617340,350.258240 
z"/>
<path fill="#000000" opacity="1.000000" stroke="none" 
	d="
M162.192825,353.399170 
	C162.073792,361.511688 158.413696,363.877106 149.765442,361.726471 
	C149.930664,357.354126 150.379593,352.914673 149.220276,348.581879 
	C155.485825,346.686737 159.195068,347.980652 162.192825,353.399170 
M153.509460,359.428253 
	C153.731735,359.668518 153.912064,360.045380 154.182587,360.128418 
	C158.002289,361.301178 158.801971,358.501892 159.283615,355.883850 
	C159.751999,353.337921 158.555237,350.826477 155.972809,350.615509 
	C152.247787,350.311096 153.512207,353.663910 153.238220,355.720123 
	C153.108780,356.691467 153.263931,357.700714 153.509460,359.428253 
z"/>
<path fill="#000000" opacity="1.000000" stroke="none" 
	d="
M101.017410,361.137726 
	C97.601639,358.089661 97.622101,354.785706 99.592651,351.474030 
	C101.497269,348.273163 104.639252,347.177917 108.176758,347.904327 
	C111.679314,348.623566 113.465706,351.242828 113.896187,354.629303 
	C114.712158,361.048431 108.388412,364.399170 101.017410,361.137726 
M106.435707,360.584778 
	C109.742569,360.110901 110.804626,357.931335 110.642174,354.918793 
	C110.499222,352.267853 108.867523,350.610992 106.508789,349.881317 
	C104.435715,349.239990 102.982368,350.663879 102.106445,352.302460 
	C100.532410,355.246887 101.718025,357.743011 103.913795,359.849915 
	C104.347313,360.265900 105.103745,360.345337 106.435707,360.584778 
z"/>
<path fill="#000000" opacity="1.000000" stroke="none" 
	d="
M283.954407,362.247498 
	C278.215179,363.439819 275.027344,361.900543 273.758331,357.606049 
	C272.582947,353.628571 274.379883,349.989166 278.308350,348.390503 
	C282.088440,346.852264 286.304626,348.321472 288.069275,351.791931 
	C289.979401,355.548462 288.641663,359.258179 283.954407,362.247498 
M285.050293,358.416138 
	C285.253265,357.627136 285.573944,356.847595 285.638245,356.047455 
	C285.876648,353.081818 284.699799,350.891846 281.815277,349.885925 
	C279.464996,349.066284 277.932739,350.542236 276.981750,352.291656 
	C275.512512,354.994324 276.648193,357.532501 278.608459,359.437653 
	C280.538300,361.313263 282.761292,361.164154 285.050293,358.416138 
z"/>
<path fill="#000000" opacity="1.000000" stroke="none" 
	d="
M368.415833,353.517944 
	C368.162262,361.622803 365.912476,363.123077 356.045319,361.869141 
	C356.500305,357.415680 357.183929,352.890869 355.752411,348.482971 
	C362.536163,346.954102 365.651062,348.143158 368.415833,353.517944 
M359.306732,354.835083 
	C359.808350,356.821289 357.881378,359.982727 361.489105,360.443848 
	C363.732666,360.730652 365.093872,358.854614 365.494598,356.747772 
	C366.202118,353.028198 364.554199,350.792725 361.122009,349.946838 
	C359.179016,351.010773 359.414642,352.596771 359.306732,354.835083 
z"/>
<path fill="#000000" opacity="1.000000" stroke="none" 
	d="
M238.857025,348.492554 
	C237.578934,353.046204 239.020706,357.617554 237.805222,362.309784 
	C233.769028,360.592407 232.737137,356.014099 229.176773,354.315735 
	C226.725113,356.307709 230.223328,360.706787 226.312790,362.118164 
	C227.164917,357.413116 226.950256,352.930145 225.494736,348.357056 
	C228.716293,347.324310 229.909012,349.470978 231.365875,351.191101 
	C232.730927,352.802795 233.717102,354.795990 236.062347,355.948730 
	C236.893875,353.977112 236.707748,352.059082 236.421600,350.146393 
	C236.139725,348.262512 236.915817,347.688232 238.857025,348.492554 
z"/>
<path fill="#000000" opacity="1.000000" stroke="none" 
	d="
M387.361694,347.875305 
	C388.780701,348.421417 389.278107,349.174683 389.052979,350.334106 
	C388.270599,351.606659 387.303375,350.579529 386.421539,350.526031 
	C385.537506,350.472351 384.689728,350.545410 384.448578,351.553101 
	C384.171295,352.711517 384.647766,353.536652 385.905365,353.601959 
	C388.246246,353.723450 389.228363,354.858643 387.253632,356.447083 
	C386.126740,357.353546 383.479675,357.002380 384.536560,359.374176 
	C385.748779,362.094696 387.634674,359.046570 389.229218,359.399933 
	C389.368011,359.430695 389.487000,359.550629 389.615204,359.629120 
	C388.415985,362.905701 386.732208,363.335571 380.787079,361.761749 
	C380.787079,357.408295 380.787079,352.988739 380.787079,348.456573 
	C382.695557,347.166840 384.885315,347.869080 387.361694,347.875305 
z"/>
<path fill="#000000" opacity="1.000000" stroke="none" 
	d="
M326.538147,348.072937 
	C327.393066,353.628754 323.392212,357.294739 321.617371,362.979095 
	C317.568939,358.207794 316.342010,353.175720 313.734039,348.829285 
	C314.051483,348.746063 321.239136,355.741486 321.321808,355.843536 
	C324.780853,354.368896 322.407166,349.237122 326.538147,348.072937 
z"/>
<path fill="#000000" opacity="1.000000" stroke="none" 
	d="
M255.182129,347.702240 
	C258.185883,348.390839 261.948669,346.029694 263.294159,350.216187 
	C261.739319,352.308685 260.175354,349.656891 258.593597,351.327850 
	C257.483490,354.420654 258.513153,358.097504 258.161194,361.638672 
	C254.776535,361.925079 254.860794,361.924438 254.828293,357.705017 
	C254.810822,355.438965 255.426971,353.065674 254.284195,351.080048 
	C252.820267,349.840698 251.666077,351.984283 250.112045,350.840973 
	C249.934036,347.501892 252.471207,347.773743 255.182129,347.702240 
z"/>
<path fill="#000000" opacity="1.000000" stroke="none" 
	d="
M174.374786,353.309204 
	C173.708694,350.207275 174.901993,348.418793 177.580231,347.890411 
	C179.639877,347.484100 181.610092,347.775330 182.034531,350.476837 
	C180.929611,352.547058 178.865417,349.143402 177.601700,351.785919 
	C178.523102,354.854675 185.089691,356.488190 181.361984,361.487518 
	C180.372101,362.815094 178.551743,363.320221 176.833817,362.874054 
	C175.027023,362.404816 173.344131,361.636871 173.967865,359.225891 
	C175.940048,357.953827 176.670898,361.333557 178.925995,359.811279 
	C180.281693,356.168976 175.184052,356.235229 174.374786,353.309204 
z"/>
<path fill="#000000" opacity="1.000000" stroke="none" 
	d="
M432.737396,357.732422 
	C431.277466,356.425262 429.914642,355.468842 428.762543,354.303986 
	C427.622009,353.150818 427.416138,351.665009 428.184601,350.182709 
	C429.135193,348.348969 430.825378,347.750153 432.743439,347.794983 
	C434.652893,347.839661 435.841003,348.701080 435.626678,350.801361 
	C433.993866,352.173798 433.063751,349.300323 431.229584,350.492676 
	C430.200287,353.386383 433.297180,353.835236 434.652466,355.276642 
	C436.330322,357.061096 437.042969,359.021301 435.459015,361.024811 
	C433.860718,363.046478 431.604309,363.387939 429.196960,362.351837 
	C427.385223,361.572021 427.414917,360.309875 427.939087,359.055908 
	C429.658813,357.733521 432.328888,363.697144 432.737396,357.732422 
z"/>
<path fill="#000000" opacity="1.000000" stroke="none" 
	d="
M343.016052,349.756531 
	C341.963928,354.020508 342.112610,357.904510 343.269958,361.760040 
	C339.607086,362.139404 339.625000,362.139648 339.694305,357.156769 
	C339.733185,354.363373 339.701294,351.569000 339.701294,348.425018 
	C340.877258,347.941620 342.321930,346.747284 343.016052,349.756531 
z"/>
<path fill="#000000" opacity="1.000000" stroke="none" 
	d="
M209.625778,354.169128 
	C210.488358,351.863007 207.348694,347.779602 212.963318,348.083221 
	C212.467300,352.809784 211.767853,357.341125 213.117279,362.089752 
	C210.898422,362.498566 209.143127,362.779938 209.549637,359.524323 
	C209.752411,357.900208 209.614929,356.233612 209.625778,354.169128 
z"/>
</svg>